<?xml version="1.0" encoding="UTF-8" standalone="no"?>
<!-- Created with Inkscape (http://www.inkscape.org/) -->

<svg
   xmlns:dc="http://purl.org/dc/elements/1.1/"
   xmlns:cc="http://creativecommons.org/ns#"
   xmlns:rdf="http://www.w3.org/1999/02/22-rdf-syntax-ns#"
   xmlns:svg="http://www.w3.org/2000/svg"
   xmlns="http://www.w3.org/2000/svg"
   xmlns:xlink="http://www.w3.org/1999/xlink"
   version="1.1"
   width="1107"
   height="774"
   id="svg3087">
  <metadata
     id="metadata3093">
    <rdf:RDF>
      <cc:Work
         rdf:about="">
        <dc:format>image/svg+xml</dc:format>
        <dc:type
           rdf:resource="http://purl.org/dc/dcmitype/StillImage" />
        <dc:title></dc:title>
      </cc:Work>
    </rdf:RDF>
  </metadata>
  <defs
     id="defs3091" />
  <image
     xlink:href="file:///Volumes/Web/leren/rekenen/images/go_cart_race_track.jpg"
     x="0"
     y="0"
     width="1107"
     height="774"
     id="image3095" />
  <path
     d="m 505.45093,726.0771 c 127.19159,-0.30255 235.59842,7.47563 320.99299,-23.50935 85.39457,-30.98497 216.97828,-100.07769 228.76398,-161.8528 11.7857,-61.7751 12.1487,-92.53443 -2.7125,-135.63083 -14.8613,-43.09641 -86.69688,-37.55814 -113.92998,-27.12617 -27.23311,10.43197 -102.50258,5.24888 -104.88785,-5.42524 -2.38527,-10.67411 -14.20831,-13.81197 -8.13785,-63.29439 6.07047,-49.48242 110.26048,-99.47334 86.80374,-176.3201 C 888.88673,56.071468 778.08963,46.783771 710.70561,94.037384 643.32159,141.291 676.72324,233.04537 618.47663,265.83645 560.23003,298.62753 494.9457,235.66361 503.64252,179.03271 512.33933,122.4018 489.72052,59.320454 418.6472,42.497664 347.57388,25.674874 206.51512,51.797889 132.01402,84.995327 57.512912,118.19276 55.305192,147.6748 57.869159,195.30841 c 2.563966,47.63362 122.355921,60.83358 167.278041,67.81542 44.92211,6.98184 70.91718,-3.01125 125.68458,21.70093 54.76739,24.71219 65.72353,79.54615 128.39719,106.69627 62.67365,27.15013 155.57255,12.09876 195.30842,49.73131 C 714.27325,478.88489 669.5102,592.63938 573.26635,595.8715 477.0225,599.10362 213.56022,444.85634 166.37384,438.53972 119.18745,432.2231 57.741718,460.50186 47.018691,529.86448 36.295665,599.2271 69.156688,638.4617 147.38551,693.52571 c 78.22883,55.064 230.87383,32.85394 358.06542,32.55139 z"
     id="path3097"
     style="fill:none;stroke:#ffffff;stroke-width:1px;stroke-linecap:butt;stroke-linejoin:miter;stroke-opacity:1" />
</svg>
