<?xml version="1.0" encoding="UTF-8" standalone="no"?>
<svg
   xmlns:dc="http://purl.org/dc/elements/1.1/"
   xmlns:cc="http://creativecommons.org/ns#"
   xmlns:rdf="http://www.w3.org/1999/02/22-rdf-syntax-ns#"
   xmlns:svg="http://www.w3.org/2000/svg"
   xmlns="http://www.w3.org/2000/svg"
   version="1.1"
   id="svg2"
   viewBox="0 0 744.09448819 1052.3622047"
   height="297mm"
   width="210mm">
  <defs
     id="defs4" />
  <metadata
     id="metadata7">
    <rdf:RDF>
      <cc:Work
         rdf:about="">
        <dc:format>image/svg+xml</dc:format>
        <dc:type
           rdf:resource="http://purl.org/dc/dcmitype/StillImage" />
        <dc:title></dc:title>
      </cc:Work>
    </rdf:RDF>
  </metadata>
  <g
     style="display:inline"
     id="layer1">
    <g
       style="display:inline"
       id="layer3">
      <circle
         r="69.583839"
         cy="93.936623"
         cx="102.70232"
         id="path4323"
         style="display:inline;opacity:1;fill:#12c7be;fill-opacity:1;fill-rule:nonzero;stroke:none;stroke-width:2;stroke-miterlimit:4;stroke-dasharray:none;stroke-opacity:1" />
      <g
         transform="matrix(0.2610223,0,0,0.2610223,22.379846,37.154585)"
         id="g4349">
        <path
           style="opacity:1;fill:#f8e645;fill-opacity:1;fill-rule:nonzero;stroke:none;stroke-width:2;stroke-miterlimit:4;stroke-dasharray:none;stroke-opacity:1"
           d="m 145.68855,495.01405 -52.529597,28.42875 9.387507,-58.98667 -43.269879,-41.17365 59.000549,-9.29983 25.78734,-53.87547"
           id="path4347" />
        <path
           style="opacity:1;fill:#ffd000;fill-opacity:1;fill-rule:nonzero;stroke:none;stroke-width:2;stroke-miterlimit:4;stroke-dasharray:none;stroke-opacity:1"
           d="m 144.06447,360.10718 27.07684,53.23906 59.20734,7.87678 -42.26615,42.20338 10.80481,58.74359 -53.19876,-27.15594"
           id="path4326" />
      </g>
      <g
         id="g4353"
         transform="matrix(0.2610223,0,0,0.2610223,65.465096,51.172095)">
        <path
           id="path4355"
           d="m 145.68855,495.01405 -52.529597,28.42875 9.387507,-58.98667 -43.269879,-41.17365 59.000549,-9.29983 25.78734,-53.87547"
           style="opacity:1;fill:#f8e645;fill-opacity:1;fill-rule:nonzero;stroke:none;stroke-width:2;stroke-miterlimit:4;stroke-dasharray:none;stroke-opacity:1" />
        <path
           id="path4357"
           d="m 144.06447,360.10718 27.07684,53.23906 59.20734,7.87678 -42.26615,42.20338 10.80481,58.74359 -53.19876,-27.15594"
           style="opacity:1;fill:#ffd000;fill-opacity:1;fill-rule:nonzero;stroke:none;stroke-width:2;stroke-miterlimit:4;stroke-dasharray:none;stroke-opacity:1" />
      </g>
      <g
         transform="matrix(0.2610223,0,0,0.2610223,107.52529,36.954025)"
         id="g4359">
        <path
           style="opacity:1;fill:#f8e645;fill-opacity:1;fill-rule:nonzero;stroke:none;stroke-width:2;stroke-miterlimit:4;stroke-dasharray:none;stroke-opacity:1"
           d="m 145.68855,495.01405 -52.529597,28.42875 9.387507,-58.98667 -43.269879,-41.17365 59.000549,-9.29983 25.78734,-53.87547"
           id="path4361" />
        <path
           style="opacity:1;fill:#ffd000;fill-opacity:1;fill-rule:nonzero;stroke:none;stroke-width:2;stroke-miterlimit:4;stroke-dasharray:none;stroke-opacity:1"
           d="m 144.06447,360.10718 27.07684,53.23906 59.20734,7.87678 -42.26615,42.20338 10.80481,58.74359 -53.19876,-27.15594"
           id="path4363" />
      </g>
    </g>
    <g
       id="layer8">
      <g
         id="g4381"
         transform="matrix(0.2610223,0,0,0.2610223,107.52529,36.954025)"
         style="display:inline">
        <path
           id="path4383"
           d="m 145.68855,495.01405 -52.529597,28.42875 9.387507,-58.98667 -43.269879,-41.17365 59.000549,-9.29983 25.78734,-53.87547"
           style="opacity:1;fill:#f8e645;fill-opacity:1;fill-rule:nonzero;stroke:none;stroke-width:2;stroke-miterlimit:4;stroke-dasharray:none;stroke-opacity:1" />
        <path
           id="path4385"
           d="m 144.06447,360.10718 27.07684,53.23906 59.20734,7.87678 -42.26615,42.20338 10.80481,58.74359 -53.19876,-27.15594"
           style="opacity:1;fill:#ffd000;fill-opacity:1;fill-rule:nonzero;stroke:none;stroke-width:2;stroke-miterlimit:4;stroke-dasharray:none;stroke-opacity:1" />
      </g>
      <g
         transform="matrix(0.2610223,0,0,0.2610223,65.465096,51.172095)"
         id="g4375"
         style="display:inline">
        <path
           style="opacity:1;fill:#f8e645;fill-opacity:1;fill-rule:nonzero;stroke:none;stroke-width:2;stroke-miterlimit:4;stroke-dasharray:none;stroke-opacity:1"
           d="m 145.68855,495.01405 -52.529597,28.42875 9.387507,-58.98667 -43.269879,-41.17365 59.000549,-9.29983 25.78734,-53.87547"
           id="path4377" />
        <path
           style="opacity:1;fill:#ffd000;fill-opacity:1;fill-rule:nonzero;stroke:none;stroke-width:2;stroke-miterlimit:4;stroke-dasharray:none;stroke-opacity:1"
           d="m 144.06447,360.10718 27.07684,53.23906 59.20734,7.87678 -42.26615,42.20338 10.80481,58.74359 -53.19876,-27.15594"
           id="path4379" />
      </g>
      <g
         id="g4369"
         transform="matrix(0.2610223,0,0,0.2610223,22.379846,37.154585)"
         style="display:inline">
        <path
           id="path4371"
           d="m 145.68855,495.01405 -52.529597,28.42875 9.387507,-58.98667 -43.269879,-41.17365 59.000549,-9.29983 25.78734,-53.87547"
           style="opacity:1;fill:#f8e645;fill-opacity:1;fill-rule:nonzero;stroke:none;stroke-width:2;stroke-miterlimit:4;stroke-dasharray:none;stroke-opacity:1" />
        <path
           id="path4373"
           d="m 144.06447,360.10718 27.07684,53.23906 59.20734,7.87678 -42.26615,42.20338 10.80481,58.74359 -53.19876,-27.15594"
           style="opacity:1;fill:#ffd000;fill-opacity:1;fill-rule:nonzero;stroke:none;stroke-width:2;stroke-miterlimit:4;stroke-dasharray:none;stroke-opacity:1" />
      </g>
    </g>
    <g
       style="display:inline"
       id="layer4">
      <rect
         y="71.184761"
         x="75.977676"
         height="4.3127484"
         width="53.449299"
         id="rect4176"
         style="display:inline;opacity:1;fill:#a00019;fill-opacity:1;fill-rule:nonzero;stroke:none;stroke-width:2;stroke-miterlimit:4;stroke-dasharray:none;stroke-opacity:1" />
      <g
         transform="matrix(0.48238434,0,0,0.48238434,46.759456,-60.781265)"
         id="g4161"
         style="display:inline">
        <path
           id="path3336"
           d="m 38.263815,370.57495 0,-120.76391 c 0,0 -0.53738,-9.78559 11.153292,-9.78559 l 0,130.54584 z"
           style="fill:#ff6773;fill-opacity:1;fill-rule:evenodd;stroke:none;stroke-width:1px;stroke-linecap:butt;stroke-linejoin:miter;stroke-opacity:1" />
        <path
           style="fill:#ff3357;fill-opacity:1;fill-rule:evenodd;stroke:none;stroke-width:1px;stroke-linecap:butt;stroke-linejoin:miter;stroke-opacity:1"
           d="m 60.570395,370.57495 0,-121.39979 c 0,0 0.53738,-9.14971 -11.153288,-9.14971 l 0,130.54584 z"
           id="path4138" />
      </g>
      <g
         transform="matrix(0.48238434,0,0,0.48238434,60.971866,-60.781265)"
         id="g4157"
         style="display:inline">
        <path
           style="fill:#ff6773;fill-opacity:1;fill-rule:evenodd;stroke:none;stroke-width:1px;stroke-linecap:butt;stroke-linejoin:miter;stroke-opacity:1"
           d="m 141.91368,370.57495 0,-120.76391 c 0,0 -0.53738,-9.78559 11.15329,-9.78559 l 0,130.54584 z"
           id="path4153" />
        <path
           id="path4155"
           d="m 164.22026,370.57495 0,-121.39979 c 0,0 0.53738,-9.14971 -11.15329,-9.14971 l 0,130.54584 z"
           style="fill:#ff3357;fill-opacity:1;fill-rule:evenodd;stroke:none;stroke-width:1px;stroke-linecap:butt;stroke-linejoin:miter;stroke-opacity:1" />
      </g>
      <rect
         style="display:inline;opacity:1;fill:#a00019;fill-opacity:1;fill-rule:nonzero;stroke:none;stroke-width:2;stroke-miterlimit:4;stroke-dasharray:none;stroke-opacity:1"
         id="rect4194"
         width="53.449299"
         height="4.3127484"
         x="75.977676"
         y="92.588631" />
      <g
         transform="matrix(0.48238434,0,0,0.48238434,48.976596,-62.827845)"
         id="g4200"
         style="display:inline">
        <rect
           style="opacity:1;fill:#f0f0f0;fill-opacity:1;fill-rule:nonzero;stroke:none;stroke-width:2;stroke-miterlimit:4;stroke-dasharray:none;stroke-opacity:1"
           id="rect4196"
           width="98.818169"
           height="19.26866"
           x="12.197592"
           y="374.77713" />
        <rect
           y="374.77713"
           x="111.01576"
           height="19.26866"
           width="98.818169"
           id="rect4198"
           style="opacity:1;fill:#c6c6c6;fill-opacity:1;fill-rule:nonzero;stroke:none;stroke-width:2;stroke-miterlimit:4;stroke-dasharray:none;stroke-opacity:1" />
      </g>
    </g>
    <g
       style="display:inline"
       id="layer2">
      <g
         transform="matrix(0.48238434,0,0,0.48238434,41.559186,-61.828225)"
         id="g4184">
        <path
           style="fill:#ffe100;fill-opacity:1;fill-rule:evenodd;stroke:none;stroke-width:1px;stroke-linecap:butt;stroke-linejoin:miter;stroke-opacity:1"
           d="m 95.012048,265.88112 c -3.559204,0 -7.039888,1.92452 -7.047204,5.4494 l 0,8.82037 0,8.7262 c 0.0073,3.52488 3.488,5.4494 7.047204,5.4494 0,-9.48179 0,-18.96358 0,-28.44537 z"
           id="path4165" />
        <path
           id="path4170"
           d="m 95.012048,265.88112 c 3.559202,0 7.039892,1.92452 7.047202,5.4494 l 0,8.82037 0,8.7262 c -0.007,3.52488 -3.488,5.4494 -7.047202,5.4494 0,-9.48179 0,-18.96358 0,-28.44537 z"
           style="fill:#ffb600;fill-opacity:1;fill-rule:evenodd;stroke:none;stroke-width:1px;stroke-linecap:butt;stroke-linejoin:miter;stroke-opacity:1" />
      </g>
      <g
         id="g4188"
         transform="matrix(0.48238434,0,0,0.48238434,75.645886,-61.828225)">
        <path
           id="path4190"
           d="m 95.012048,265.88112 c -3.559204,0 -7.039888,1.92452 -7.047204,5.4494 l 0,8.82037 0,8.7262 c 0.0073,3.52488 3.488,5.4494 7.047204,5.4494 0,-9.48179 0,-18.96358 0,-28.44537 z"
           style="fill:#ffe100;fill-opacity:1;fill-rule:evenodd;stroke:none;stroke-width:1px;stroke-linecap:butt;stroke-linejoin:miter;stroke-opacity:1" />
        <path
           style="fill:#ffb600;fill-opacity:1;fill-rule:evenodd;stroke:none;stroke-width:1px;stroke-linecap:butt;stroke-linejoin:miter;stroke-opacity:1"
           d="m 95.012048,265.88112 c 3.559202,0 7.039892,1.92452 7.047202,5.4494 l 0,8.82037 0,8.7262 c -0.007,3.52488 -3.488,5.4494 -7.047202,5.4494 0,-9.48179 0,-18.96358 0,-28.44537 z"
           id="path4192" />
      </g>
      <g
         id="g4220"
         transform="matrix(0.48238434,0,0,0.48238434,45.202956,-40.594925)">
        <path
           style="fill:#f0f0f0;fill-opacity:1;fill-rule:evenodd;stroke:none;stroke-width:1px;stroke-linecap:butt;stroke-linejoin:miter;stroke-opacity:1"
           d="m 95.012048,265.88112 c -3.559204,0 -7.039888,1.92452 -7.047204,5.4494 l 0,8.82037 0,8.7262 c 0.0073,3.52488 3.488,5.4494 7.047204,5.4494 0,-9.48179 0,-18.96358 0,-28.44537 z"
           id="path4212" />
        <path
           id="path4214"
           d="m 95.012048,265.88112 c 3.559202,0 7.039892,1.92452 7.047202,5.4494 l 0,8.82037 0,8.7262 c -0.007,3.52488 -3.488,5.4494 -7.047202,5.4494 0,-9.48179 0,-18.96358 0,-28.44537 z"
           style="fill:#c6c6c6;fill-opacity:1;fill-rule:evenodd;stroke:none;stroke-width:1px;stroke-linecap:butt;stroke-linejoin:miter;stroke-opacity:1" />
      </g>
      <g
         transform="matrix(0.48238434,0,0,0.48238434,49.660246,-40.594925)"
         id="g4224">
        <path
           id="path4216"
           d="m 71.677524,265.88112 c -3.559204,0 -7.039888,1.92452 -7.047204,5.4494 l 0,8.82037 0,8.7262 c 0.0073,3.52488 3.488,5.4494 7.047204,5.4494 0,-9.48179 0,-18.96358 0,-28.44537 z"
           style="fill:#ff6773;fill-opacity:1;fill-rule:evenodd;stroke:none;stroke-width:1px;stroke-linecap:butt;stroke-linejoin:miter;stroke-opacity:1" />
        <path
           style="fill:#ff3357;fill-opacity:1;fill-rule:evenodd;stroke:none;stroke-width:1px;stroke-linecap:butt;stroke-linejoin:miter;stroke-opacity:1"
           d="m 71.677524,265.88112 c 3.559202,0 7.039892,1.92452 7.047202,5.4494 l 0,8.82037 0,8.7262 c -0.007,3.52488 -3.488,5.4494 -7.047202,5.4494 0,-9.48179 0,-18.96358 0,-28.44537 z"
           id="path4218" />
      </g>
      <g
         id="g4228"
         transform="matrix(0.48238434,0,0,0.48238434,85.855776,-40.594925)">
        <path
           style="fill:#ff6773;fill-opacity:1;fill-rule:evenodd;stroke:none;stroke-width:1px;stroke-linecap:butt;stroke-linejoin:miter;stroke-opacity:1"
           d="m 71.677524,265.88112 c -3.559204,0 -7.039888,1.92452 -7.047204,5.4494 l 0,8.82037 0,8.7262 c 0.0073,3.52488 3.488,5.4494 7.047204,5.4494 0,-9.48179 0,-18.96358 0,-28.44537 z"
           id="path4230" />
        <path
           id="path4232"
           d="m 71.677524,265.88112 c 3.559202,0 7.039892,1.92452 7.047202,5.4494 l 0,8.82037 0,8.7262 c -0.007,3.52488 -3.488,5.4494 -7.047202,5.4494 0,-9.48179 0,-18.96358 0,-28.44537 z"
           style="fill:#ff3357;fill-opacity:1;fill-rule:evenodd;stroke:none;stroke-width:1px;stroke-linecap:butt;stroke-linejoin:miter;stroke-opacity:1" />
      </g>
      <g
         transform="matrix(0.48238434,0,0,0.48238434,48.358106,-61.742955)"
         id="g4243">
        <path
           id="path4245"
           d="m 95.012048,265.88112 c -3.559204,0 -7.039888,1.92452 -7.047204,5.4494 l 0,8.82037 0,8.7262 c 0.0073,3.52488 3.488,5.4494 7.047204,5.4494 0,-9.48179 0,-18.96358 0,-28.44537 z"
           style="fill:#f0f0f0;fill-opacity:1;fill-rule:evenodd;stroke:none;stroke-width:1px;stroke-linecap:butt;stroke-linejoin:miter;stroke-opacity:1" />
        <path
           style="fill:#c6c6c6;fill-opacity:1;fill-rule:evenodd;stroke:none;stroke-width:1px;stroke-linecap:butt;stroke-linejoin:miter;stroke-opacity:1"
           d="m 95.012048,265.88112 c 3.559202,0 7.039892,1.92452 7.047202,5.4494 l 0,8.82037 0,8.7262 c -0.007,3.52488 -3.488,5.4494 -7.047202,5.4494 0,-9.48179 0,-18.96358 0,-28.44537 z"
           id="path4247" />
      </g>
      <g
         id="g4249"
         transform="matrix(0.48238434,0,0,0.48238434,67.800656,-40.343715)">
        <path
           id="path4251"
           d="m 95.012048,265.88112 c -3.559204,0 -7.039888,1.92452 -7.047204,5.4494 l 0,8.82037 0,8.7262 c 0.0073,3.52488 3.488,5.4494 7.047204,5.4494 0,-9.48179 0,-18.96358 0,-28.44537 z"
           style="fill:#ffe100;fill-opacity:1;fill-rule:evenodd;stroke:none;stroke-width:1px;stroke-linecap:butt;stroke-linejoin:miter;stroke-opacity:1" />
        <path
           style="fill:#ffb600;fill-opacity:1;fill-rule:evenodd;stroke:none;stroke-width:1px;stroke-linecap:butt;stroke-linejoin:miter;stroke-opacity:1"
           d="m 95.012048,265.88112 c 3.559202,0 7.039892,1.92452 7.047202,5.4494 l 0,8.82037 0,8.7262 c -0.007,3.52488 -3.488,5.4494 -7.047202,5.4494 0,-9.48179 0,-18.96358 0,-28.44537 z"
           id="path4253" />
      </g>
      <g
         transform="matrix(0.48238434,0,0,0.48238434,52.001876,-40.594925)"
         id="g4317">
        <path
           style="fill:#ffe100;fill-opacity:1;fill-rule:evenodd;stroke:none;stroke-width:1px;stroke-linecap:butt;stroke-linejoin:miter;stroke-opacity:1"
           d="m 95.012048,265.88112 c -3.559204,0 -7.039888,1.92452 -7.047204,5.4494 l 0,8.82037 0,8.7262 c 0.0073,3.52488 3.488,5.4494 7.047204,5.4494 0,-9.48179 0,-18.96358 0,-28.44537 z"
           id="path4319" />
        <path
           id="path4321"
           d="m 95.012048,265.88112 c 3.559202,0 7.039892,1.92452 7.047202,5.4494 l 0,8.82037 0,8.7262 c -0.007,3.52488 -3.488,5.4494 -7.047202,5.4494 0,-9.48179 0,-18.96358 0,-28.44537 z"
           style="fill:#ffb600;fill-opacity:1;fill-rule:evenodd;stroke:none;stroke-width:1px;stroke-linecap:butt;stroke-linejoin:miter;stroke-opacity:1" />
      </g>
    </g>
  </g>
  <g
     id="layer5">
    <g
       id="g4365"
       style="display:inline">
      <circle
         style="display:inline;opacity:1;fill:#96de40;fill-opacity:1;fill-rule:nonzero;stroke:none;stroke-width:2;stroke-miterlimit:4;stroke-dasharray:none;stroke-opacity:1"
         id="circle4367"
         cx="305.44119"
         cy="96.73526"
         r="69.583839" />
      <path
         id="path4438"
         d="m 306.17405,70.880426 c 1.70705,0 1.88275,-0.260154 5.31842,-1.96446 3.27064,-1.622435 4.01783,-1.9485 5.93348,-2.589335 3.17004,-1.060455 6.01156,-1.534436 9.21435,-1.537002 4.36611,-0.0038 7.54128,0.862595 10.59907,2.891144 4.47487,2.968635 7.25998,8.438315 8.12311,15.953 0.24078,2.096275 0.2036,7.570137 -0.0701,10.331241 -0.78972,7.964826 -2.85532,16.953556 -5.12885,22.318886 -3.60856,8.51585 -9.33439,15.07901 -15.89824,18.22316 -3.18676,1.52649 -5.55026,2.08139 -8.93345,2.09741 -3.222,0.0153 -5.69542,-0.50368 -8.41069,-1.76458 l -1.22072,-0.56687"
         style="fill:#80000e;fill-opacity:1" />
      <path
         id="path4436"
         d="m 305.70043,134.27302 -1.10551,0.50535 c -2.65451,1.21343 -4.95097,1.75121 -7.83139,1.83403 -1.1134,0.032 -2.43273,0.002 -2.93184,-0.0668 l -1.2e-4,-2e-5 c -2.47396,-0.34085 -4.83366,-1.07275 -7.04082,-2.18384 -7.3724,-3.71128 -13.4442,-11.41245 -16.83048,-21.34694 -1.62851,-4.77768 -3.29448,-12.89809 -3.93684,-19.189402 -0.26658,-2.61083 -0.22556,-8.872606 0.0722,-11.013618 1.14243,-8.216226 4.39084,-13.518469 9.93555,-16.217449 2.58461,-1.258107 5.18818,-1.805876 8.58977,-1.807267 4.93602,-0.0019 9.04187,1.065783 14.51659,3.775251 3.58325,1.773367 5.68548,2.318111 7.03651,2.318111"
         style="fill:#cf1126;fill-opacity:1" />
      <path
         id="path4407"
         d="m 303.52055,68.635747 c -0.55044,-0.239787 -0.61424,-0.421396 -0.61424,-1.74847 0,-2.732289 1.02083,-6.306965 2.52334,-8.836055 0.6955,-1.1707 2.25549,-2.848605 3.40954,-3.667261 2.42862,-1.722812 5.83167,-2.830551 9.48441,-3.087321 1.27982,-0.08995 1.31762,-0.08384 1.67178,0.270323 0.31172,0.311723 0.36235,0.482646 0.36235,1.223341 0,2.117732 -0.6929,5.202055 -1.66528,7.412739 -2.25361,5.123482 -6.83082,7.951025 -13.83158,8.544369 -0.61,0.05169 -1.04936,0.01513 -1.34032,-0.111665 z"
         style="fill:#009b05;fill-opacity:1" />
    </g>
    <g
       id="layer9">
      <g
         style="display:inline"
         transform="matrix(0.2610223,0,0,0.2610223,309.89734,36.954025)"
         id="g4516">
        <path
           style="opacity:1;fill:#f8e645;fill-opacity:1;fill-rule:nonzero;stroke:none;stroke-width:2;stroke-miterlimit:4;stroke-dasharray:none;stroke-opacity:1"
           d="m 145.68855,495.01405 -52.529597,28.42875 9.387507,-58.98667 -43.269879,-41.17365 59.000549,-9.29983 25.78734,-53.87547"
           id="path4518" />
        <path
           style="opacity:1;fill:#ffd000;fill-opacity:1;fill-rule:nonzero;stroke:none;stroke-width:2;stroke-miterlimit:4;stroke-dasharray:none;stroke-opacity:1"
           d="m 144.06447,360.10718 27.07684,53.23906 59.20734,7.87678 -42.26615,42.20338 10.80481,58.74359 -53.19876,-27.15594"
           id="path4520" />
      </g>
      <g
         style="display:inline"
         id="g4522"
         transform="matrix(0.2610223,0,0,0.2610223,267.83714,51.172095)">
        <path
           id="path4524"
           d="m 145.68855,495.01405 -52.529597,28.42875 9.387507,-58.98667 -43.269879,-41.17365 59.000549,-9.29983 25.78734,-53.87547"
           style="opacity:1;fill:#f8e645;fill-opacity:1;fill-rule:nonzero;stroke:none;stroke-width:2;stroke-miterlimit:4;stroke-dasharray:none;stroke-opacity:1" />
        <path
           id="path4526"
           d="m 144.06447,360.10718 27.07684,53.23906 59.20734,7.87678 -42.26615,42.20338 10.80481,58.74359 -53.19876,-27.15594"
           style="opacity:1;fill:#ffd000;fill-opacity:1;fill-rule:nonzero;stroke:none;stroke-width:2;stroke-miterlimit:4;stroke-dasharray:none;stroke-opacity:1" />
      </g>
      <g
         style="display:inline"
         transform="matrix(0.2610223,0,0,0.2610223,224.75189,37.154585)"
         id="g4528">
        <path
           style="opacity:1;fill:#f8e645;fill-opacity:1;fill-rule:nonzero;stroke:none;stroke-width:2;stroke-miterlimit:4;stroke-dasharray:none;stroke-opacity:1"
           d="m 145.68855,495.01405 -52.529597,28.42875 9.387507,-58.98667 -43.269879,-41.17365 59.000549,-9.29983 25.78734,-53.87547"
           id="path4530" />
        <path
           style="opacity:1;fill:#ffd000;fill-opacity:1;fill-rule:nonzero;stroke:none;stroke-width:2;stroke-miterlimit:4;stroke-dasharray:none;stroke-opacity:1"
           d="m 144.06447,360.10718 27.07684,53.23906 59.20734,7.87678 -42.26615,42.20338 10.80481,58.74359 -53.19876,-27.15594"
           id="path4532" />
      </g>
    </g>
    <g
       id="layer6" />
    <g
       id="layer10">
      <path
         id="path4557"
         d="m 271.56613,90.600621 c -0.92969,-4.948185 0.15577,-10.895832 1.88036,-13.912957 4.24785,-7.431482 16.75529,-7.601333 18.29786,-3.049017 1.12905,3.331994 -3.77744,7.410768 -6.62826,12.648829 -2.85082,5.238061 -4.70564,12.060493 -6.62642,12.499801 -4.6515,1.06386 -6.14451,-4.040297 -6.92354,-8.186656 z"
         style="fill:#ffffff;fill-opacity:1;fill-rule:evenodd;stroke:none;stroke-width:1px;stroke-linecap:butt;stroke-linejoin:miter;stroke-opacity:1" />
    </g>
  </g>
</svg>
